<svg id="af76b42c-ba4c-48f9-b3ec-cdb728ab7658" xmlns="http://www.w3.org/2000/svg" viewBox="0 0 180.03883 36.43613"><path d="M30.08988,8.73261c-.148.10623-.25066.18613-.35925.25693q-6.55956,4.27637-13.119,8.55288a1.46076,1.46076,0,0,1-1.75.03028C10.55374,14.89227,6.22713,12.242,1.90774,9.58015c-.22488-.13859-.43939-.294-.69157-.46368a2.29227,2.29227,0,0,1,.24071-.21833Q8.09144,4.56945,14.72543.23993A1.21073,1.21073,0,0,1,16.176.24275c1.16741.72562,2.35614,1.4169,3.53559,2.12317.11094.06644.21734.14048.40746.264-1.17453.74589-2.27744,1.47135-3.41277,2.14192-.18313.10816-.521.01-.76949-.058a4.37639,4.37639,0,0,0-2.78712.05766,4.63778,4.63778,0,0,0-.94069.47523c-.77619.52464-1.53819,1.07088-2.29329,1.62562a3.64271,3.64271,0,0,0-.60178.58182.88408.88408,0,0,0,.09386,1.40436,14.17265,14.17265,0,0,0,1.36034.97809c1.35315.88525,2.71433,1.75827,4.07477,2.63234a3.468,3.468,0,0,0,2.78506.66588,2.706,2.706,0,0,0,.76425-.3317q1.96653-1.22613,3.91443-2.482a1.70551,1.70551,0,0,0,.861-1.47973.887.887,0,0,0-.74891-.93689,3.73289,3.73289,0,0,0-2.787.56076q-.783.46866-1.56707.93543a1.20674,1.20674,0,0,1-1.4602-.081c-.32729-.24917-.66139-.48939-1.01908-.75325a3.07662,3.07662,0,0,1,.24574-.19138c2.03916-1.26,4.08216-2.51388,6.1177-3.77972a1.46493,1.46493,0,0,1,1.75465.03414C25.68674,5.93161,27.7,7.18824,29.70106,8.46342,29.82,8.53923,29.93339,8.62388,30.08988,8.73261Z" transform="translate(0.00075 -0.00007)" style="fill:#7f6013"/><path d="M17.08174,36.15873v-.45648c0-4.82213.00805-9.64427-.009-14.46634a1.57172,1.57172,0,0,1,.82891-1.49125Q24.42991,15.72754,30.937,11.676c.0607-.03761.12673-.06662.25916-.13542a2.81,2.81,0,0,1,.094.49478c.00528,2.959.01153,5.918.00107,8.87694-.0065,1.83738-.0582,3.6747-.05294,5.512a1.66207,1.66207,0,0,1-.83027,1.5461c-.97575.619-1.92683,1.27687-2.88915,1.91711-.1086.07225-.22268.13629-.38042.23225-.0355-.44185-.06568-.83607-.09911-1.23-.0708-.834-.09289-1.67614-.2298-2.49917-.12759-.767-.50468-.99672-1.22677-.7259a23.10143,23.10143,0,0,0-2.2991,1.094,14.12147,14.12147,0,0,0-1.32682.76026c-.71841.46862-.703,1.21984-.69738,1.95688.00863,1.12776.06334,2.25739.01395,3.38252a1.8592,1.8592,0,0,1-1.00974,1.5216c-.95564.55691-1.91859,1.1013-2.87956,1.649C17.31254,36.06969,17.2321,36.09485,17.08174,36.15873Zm9.5914-15.6173c0-.28.01517-.561-.00287-.83981-.052-.80385-.56947-1.3479-1.21379-1.25867a2.1888,2.1888,0,0,0-.79481.23653c-.7537.44154-1.494.90788-2.222,1.391-1.58331,1.05067-1.28807,2.79534-.66692,4.18239.0838.1871.2116.19308.38423.10288q1.68006-.8778,3.36647-1.74337A1.74014,1.74014,0,0,0,26.67314,20.54143Z" transform="translate(0.00075 -0.00007)" style="fill:#7f6013"/><path d="M.09886,11.94527c.29837.17737.53666.31806.774.46029q6.41739,3.84519,12.83858,7.684a1.82768,1.82768,0,0,1,1.02207,1.80472c-.05525,1.544-.01112,3.09181-.00032,4.638.01078,1.545.04744,3.09.04369,4.63487-.004,1.63009-.04192,3.2601-.0663,4.89013-.00159.10687-.01408.21358-.02559.37892-.12994-.06041-.22571-.09481-.31129-.14617Q7.66113,32.26188.953,28.22643a2.47384,2.47384,0,0,1-.69855-.57772,1.2865,1.2865,0,0,1-.24371-.72439q-.02217-3.81687-.00136-7.634c.011-2.32417.04024-4.64824.06257-6.97235C.07285,12.22261.08533,12.12726.09886,11.94527ZM3.72808,23.18793a2.28385,2.28385,0,0,0-.04783.28974c-.00208,1.50813-.01144,3.01643.01244,4.52418A.68486.68486,0,0,0,4.009,28.469c1.2112.72026,2.43062,1.42746,3.6626,2.11151a3.58834,3.58834,0,0,0,1.02166.36256,1.61443,1.61443,0,0,0,2.06879-2.04236,3.79409,3.79409,0,0,0-1.78071-2.558c-1.548-.98447-3.12018-1.931-4.68528-2.88847A5.95767,5.95767,0,0,0,3.72808,23.18793Zm.05966-6.98514a2.64913,2.64913,0,0,0-.03749.28239c-.00178,1.50888-.0098,3.01788.01093,4.52648a.63471.63471,0,0,0,.28181.44478c1.2227.72631,2.457,1.43313,3.69238,2.138a3.22924,3.22924,0,0,0,1.50059.37372c1.29323.05756,1.73149-.90951,1.60515-1.90644a3.693,3.693,0,0,0-1.7996-2.70421C7.46251,18.35225,5.855,17.39165,4.257,16.41619A4.52644,4.52644,0,0,0,3.78774,16.20279Z" transform="translate(0.00075 -0.00007)" style="fill:#7f6013"/><rect x="40.08249" y="3.69754" style="fill:#7f6013;stroke:#ccc;stroke-miterlimit:10;stroke-width:0.25px"/><path d="M43.49951,14.709V3.2168h1.80664a9.37061,9.37061,0,0,1,2.29981.20312,3.07944,3.07944,0,0,1,1.64258,1.01563,2.6689,2.6689,0,0,1,.61035,1.75,2.5532,2.5532,0,0,1-.27735,1.1914,3.03357,3.03357,0,0,1-.90234,1.00391,3.59862,3.59862,0,0,1,1.53125,1.23047,3.11194,3.11194,0,0,1,.48437,1.74609,3.25387,3.25387,0,0,1-.50048,1.76563,3.1973,3.1973,0,0,1-1.29053,1.1914,4.95445,4.95445,0,0,1-2.18213.39453ZM45.687,5.30273V7.72461h.47852a1.77935,1.77935,0,0,0,1.188-.33594,1.14535,1.14535,0,0,0,.38818-.91406,1.06981,1.06981,0,0,0-.36865-.85547,1.68847,1.68847,0,0,0-1.12159-.31641Zm0,4.375V12.623h.54834a3.38427,3.38427,0,0,0,1.83692-.34375,1.1584,1.1584,0,0,0,.47412-1,1.402,1.402,0,0,0-.55616-1.17188,3.07684,3.07684,0,0,0-1.84912-.42969Z" transform="translate(0.00075 -0.00007)" style="fill:#2e3192"/><path d="M56.28662,3.2168h2.21875L62.92529,14.709H60.65186l-.89942-2.36718h-4.689L54.12842,14.709H51.855Zm1.123,3.04687-1.542,3.94531h3.0747Z" transform="translate(0.00075 -0.00007)" style="fill:#2e3192"/><path d="M64.62451,3.2168h2.09863l4.917,7.5625V3.2168h2.1875V14.709h-2.1045L66.812,7.16992V14.709h-2.1875Z" transform="translate(0.00075 -0.00007)" style="fill:#2e3192"/><path d="M76.46045,3.2168h2.09863l4.917,7.5625V3.2168h2.1875V14.709H83.55908L78.648,7.16992V14.709h-2.1875Z" transform="translate(0.00075 -0.00007)" style="fill:#2e3192"/><path d="M91.794,3.2168H94.0127L98.43262,14.709H96.15918l-.89844-2.36718H90.57129L89.63574,14.709H87.36279Zm1.123,3.04687L91.376,10.209H94.4502Z" transform="translate(0.00075 -0.00007)" style="fill:#2e3192"/><path d="M100.27246,3.2168h2.31738a7.66065,7.66065,0,0,1,2.71192.33984,2.77741,2.77741,0,0,1,1.29883,1.12891,3.45637,3.45637,0,0,1,.49218,1.86718,3.1785,3.1785,0,0,1-.543,1.89454,3.29435,3.29435,0,0,1-1.63671,1.15234l2.72265,5.10937h-2.3916l-2.584-4.86718H102.46V14.709h-2.1875ZM102.46,7.709h.68555a2.67241,2.67241,0,0,0,1.43652-.27441,1.02816,1.02816,0,0,0,.39356-.90918,1.111,1.111,0,0,0-.19434-.6543,1.079,1.079,0,0,0-.52246-.3999,3.94982,3.94982,0,0,0-1.19922-.12158H102.46Z" transform="translate(0.00075 -0.00007)" style="fill:#2e3192"/><path d="M109.249,3.2168h2.17188V14.709H109.249Z" transform="translate(0.00075 -0.00007)" style="fill:#2e3192"/><path d="M121.86426,3.2168H124.083L128.50293,14.709h-2.27344l-.89941-2.36718h-4.68946l-.93457,2.36718h-2.27343Zm1.123,3.04687-1.542,3.94531h3.0752Z" transform="translate(0.00075 -0.00007)" style="fill:#2e3192"/><path d="M131.30957,3.2168h2.13086l2.66406,8.01562L138.793,3.2168h2.12988L142.85059,14.709h-2.11524l-1.23242-7.25781L137.06152,14.709h-1.92773l-2.41992-7.25781L131.45215,14.709h-2.13281Z" transform="translate(0.00075 -0.00007)" style="fill:#2e3192"/><path d="M145.708,3.2168h2.13086l2.66406,8.01562,2.68848-8.01562h2.12988L157.249,14.709h-2.11523l-1.23242-7.25781L151.46,14.709h-1.92773L147.1123,7.45117,145.85059,14.709h-2.13282Z" transform="translate(0.00075 -0.00007)" style="fill:#2e3192"/><path d="M162.49707,3.2168h2.21875L169.13574,14.709H166.8623l-.89941-2.36718h-4.68945l-.93457,2.36718h-2.27344Zm1.123,3.04687-1.542,3.94531h3.0752Z" transform="translate(0.00075 -0.00007)" style="fill:#2e3192"/><path d="M170.835,3.2168h2.09863l4.917,7.5625V3.2168h2.1875V14.709h-2.1045l-4.91113-7.53906V14.709H170.835Z" transform="translate(0.00075 -0.00007)" style="fill:#2e3192"/><path d="M97.53027,22.62305l-.77929.73828a5.94688,5.94688,0,0,0-1.84278-1.25391,4.95092,4.95092,0,0,0-1.95166-.42773,4.66021,4.66021,0,0,0-2.25244.581,4.22132,4.22132,0,0,0-1.65771,1.57617,4.06405,4.06405,0,0,0-.58789,2.10157,4.15146,4.15146,0,0,0,.60839,2.15722,4.32869,4.32869,0,0,0,1.68165,1.60645,4.83653,4.83653,0,0,0,2.35156.584,4.0176,4.0176,0,0,0,2.62549-.875,3.45789,3.45789,0,0,0,1.27148-2.26953H93.79053v-.9707H98.125a5.04865,5.04865,0,0,1-1.38477,3.70215,4.9576,4.9576,0,0,1-3.66748,1.37011,5.50928,5.50928,0,0,1-4.416-1.90039,5.049,5.049,0,0,1-1.251-3.38379,5.188,5.188,0,0,1,.71778-2.65918A5.09818,5.09818,0,0,1,90.09229,21.376a5.73227,5.73227,0,0,1,2.83007-.69434,6.29826,6.29826,0,0,1,2.40674.46191A7.18933,7.18933,0,0,1,97.53027,22.62305Z" transform="translate(0.00075 -0.00007)" style="fill:#2e3192"/><path d="M100.09375,20.93457h2.00293a12.182,12.182,0,0,1,2.26953.13672,2.59819,2.59819,0,0,1,1.45606.87988,2.51311,2.51311,0,0,1,.56054,1.66016,2.68265,2.68265,0,0,1-.38672,1.44433,2.40344,2.40344,0,0,1-1.10351.94043,5.049,5.049,0,0,1-1.98242.3252l3.61621,4.66894H105.2832L101.667,26.32129h-.56836v4.66894h-1.00488Zm1.00488.98438v3.418l1.73242.01368a4.30142,4.30142,0,0,0,1.48926-.19141,1.54862,1.54862,0,0,0,.75293-.61133,1.70641,1.70641,0,0,0,.27051-.94043,1.62807,1.62807,0,0,0-.27441-.91894,1.52564,1.52564,0,0,0-.71875-.5918,4.37844,4.37844,0,0,0-1.47852-.17773Z" transform="translate(0.00075 -0.00007)" style="fill:#2e3192"/><path d="M113.32422,20.68164a5.221,5.221,0,0,1,3.82422,1.52441,5.3405,5.3405,0,0,1,.00293,7.499,5.09026,5.09026,0,0,1-3.74512,1.53808,5.14256,5.14256,0,0,1-3.77539-1.53125,5.03225,5.03225,0,0,1-1.53906-3.70507,5.35588,5.35588,0,0,1,.70117-2.68653,5.17938,5.17938,0,0,1,4.53125-2.63867Zm.04492.97754a4.29363,4.29363,0,0,0-3.67676,2.14844,4.35027,4.35027,0,0,0-.56152,2.19629,4.228,4.228,0,0,0,4.23828,4.26171,4.30791,4.30791,0,0,0,2.167-.56738,4.07041,4.07041,0,0,0,1.55371-1.55273,4.36568,4.36568,0,0,0,.5586-2.18946,4.258,4.258,0,0,0-.5586-2.166,4.16994,4.16994,0,0,0-1.57129-1.54883A4.25162,4.25162,0,0,0,113.36914,21.65918Z" transform="translate(0.00075 -0.00007)" style="fill:#2e3192"/><path d="M120.73828,20.93457h1.00488v6.07031a12.55048,12.55048,0,0,0,.041,1.34668,2.22706,2.22706,0,0,0,.34863.99512,2.05222,2.05222,0,0,0,.84082.66992,2.63743,2.63743,0,0,0,1.1416.26953,2.25184,2.25184,0,0,0,.957-.21191,2.12375,2.12375,0,0,0,.76562-.58789,2.39494,2.39494,0,0,0,.45117-.90918,7.52294,7.52294,0,0,0,.10254-1.57227V20.93457h1.00488v6.07031a7.38,7.38,0,0,1-.26367,2.17774,2.95565,2.95565,0,0,1-1.05273,1.44531,3.01371,3.01371,0,0,1-1.91016.61523,3.65641,3.65641,0,0,1-2.085-.58105,2.7896,2.7896,0,0,1-1.16211-1.53809,8.14377,8.14377,0,0,1-.18457-2.11914Z" transform="translate(0.00075 -0.00007)" style="fill:#2e3192"/><path d="M129.86426,20.93457h2.00293a11.59145,11.59145,0,0,1,2.32422.15039,2.57987,2.57987,0,0,1,1.4082.87207,2.81437,2.81437,0,0,1,.01367,3.31543,2.62712,2.62712,0,0,1-1.4707.87793,12.97245,12.97245,0,0,1-2.55567.16406h-.71777v4.67578h-1.00488Zm1.00488.98438v3.41113l1.70117.02051a4.46113,4.46113,0,0,0,1.51172-.1875,1.55428,1.55428,0,0,0,.75195-.60743,1.68337,1.68337,0,0,0,.27344-.9375,1.66518,1.66518,0,0,0-.27344-.9248,1.51819,1.51819,0,0,0-.72265-.59668,4.3286,4.3286,0,0,0-1.46485-.17773Z" transform="translate(0.00075 -0.00007)" style="fill:#2e3192"/></svg>